<?xml version="1.0" standalone="no"?>
<!DOCTYPE svg PUBLIC "-//W3C//DTD SVG 20010904//EN"
 "http://www.w3.org/TR/2001/REC-SVG-20010904/DTD/svg10.dtd">
<svg version="1.0" xmlns="http://www.w3.org/2000/svg"
 width="200.000000pt" height="200.000000pt" viewBox="0 0 200.000000 200.000000"
 preserveAspectRatio="xMidYMid meet">
<metadata>
Created by potrace 1.11, written by Peter Selinger 2001-2013
</metadata>
<g transform="translate(0.000000,200.000000) scale(0.100000,-0.100000)"
fill="#000000" stroke="none">
<path d="M989 1776 c-2 -2 -26 -6 -54 -10 -135 -16 -283 -86 -397 -188 -115
-103 -210 -274 -264 -475 -2 -7 -22 -17 -46 -23 -90 -23 -144 -42 -175 -63
-41 -28 -42 -39 -2 -32 41 7 198 9 205 3 3 -3 7 -16 9 -29 22 -141 30 -181 46
-228 26 -76 72 -154 136 -234 l55 -69 -20 -21 c-44 -46 -89 -195 -65 -210 9
-6 72 42 175 130 15 13 20 12 50 -10 55 -42 176 -86 282 -103 63 -10 263 -12
321 -3 160 26 308 102 426 219 159 156 251 350 253 530 1 131 -26 242 -91 375
-135 278 -386 431 -719 441 -67 1 -123 1 -125 0z"/>
</g>
</svg>
